<svg id="Layer_1" data-name="Layer 1" xmlns="http://www.w3.org/2000/svg" viewBox="0 0 100 100"><defs><style>.cls-1{fill:#fcbd34;}.cls-2{fill:#15173f;}.cls-3{fill:#b6bdcc;}.cls-4{fill:#0ea0cf;}</style></defs><polygon class="cls-1" points="73.88 56.39 71.69 64.21 68.69 69.86 68.69 74.91 58.31 74.91 60.04 72.85 73.88 56.39"/><polygon class="cls-1" points="25.45 56.39 27.64 64.21 30.64 69.86 30.64 74.91 41.02 74.91 39.29 72.85 25.45 56.39"/><path class="cls-2" d="M25.43,56.38V48.33H23.7V56.6a.8.8,0,0,0,.11.4l6.82,12.86v5h1.73V69.65a.84.84,0,0,0-.11-.41Z"/><path class="cls-2" d="M38.36,56.59l-3-2.69a4.31,4.31,0,0,0-4.74-.7V45.42a6,6,0,0,0-6-6h-.08a.87.87,0,0,0-.86.86v6.29h1.73V41.24a4.27,4.27,0,0,1,3.47,4.18v9.51a.75.75,0,0,0,.14.48h0l3.46,5.19a.87.87,0,1,0,1.45-1h0l-3.06-4.58a2.6,2.6,0,0,1,3.34.11l3,2.69a7.82,7.82,0,0,1,2.54,6.5l-.47,5.2v5.34H41V69.69l.47-5.17A9.56,9.56,0,0,0,38.36,56.59Z"/><path class="cls-2" d="M75.61,40.31V56.6a.86.86,0,0,1-.1.41l-3.82,7.2-3,5.65v5H67V69.65a.86.86,0,0,1,.1-.41l6.82-12.85V41.25a4.25,4.25,0,0,0-3.46,4.18v9.51a.92.92,0,0,1-.14.48l-3.47,5.19h0a.86.86,0,1,1-1.43-1l3.05-4.58a2.57,2.57,0,0,0-3.33.12l-3,2.69a7.84,7.84,0,0,0-2.55,6.49l.48,5.2v5.34H58.31V69.69l-.47-5.16A9.59,9.59,0,0,1,61,56.59l3-2.69a4.32,4.32,0,0,1,4.75-.69V45.34a6,6,0,0,1,6.07-5.9A.87.87,0,0,1,75.61,40.31Z"/><path class="cls-2" d="M64.51,42.31,62.81,42a19.92,19.92,0,0,1-9.27,13.16l-3.88,2.33-3.88-2.33A19.94,19.94,0,0,1,36.5,42L34.32,31.08l15.34-6.9L65,31.08l-1.85,9.29,1.69.34,2-10a.89.89,0,0,0-.5-1L50,22.44a.88.88,0,0,0-.71,0L33,29.78a.88.88,0,0,0-.49,1L34.8,42.31A21.65,21.65,0,0,0,44.89,56.62l4.32,2.59a.84.84,0,0,0,.89,0l4.33-2.59A21.67,21.67,0,0,0,64.51,42.31Z"/><path class="cls-3" d="M54.49,30.15l.71-1.58L50,26.23a.88.88,0,0,0-.71,0l-5.19,2.34.71,1.58L49.66,28Z"/><path class="cls-3" d="M49.66,53.43l-2.1-1.26a16.07,16.07,0,0,1-1.85-1.29l-1.09,1.34a18.31,18.31,0,0,0,2.05,1.43l2.54,1.53a.89.89,0,0,0,.89,0l2.55-1.53a19.15,19.15,0,0,0,2-1.43l-1.08-1.34a18,18,0,0,1-1.85,1.29Z"/><path class="cls-4" d="M60.49,34.38a2,2,0,0,0-.48-.12h-.18l-3.13.3a2.61,2.61,0,0,0-1.54.34L53,36.16l-7.46-1.65a.88.88,0,0,0-.67.12l-2.51,1.68a.87.87,0,0,0-.24,1.2.9.9,0,0,0,.28.27l4.89,2.87-3,2.41-3-.81a.89.89,0,0,0-.58,0l-1.73.77a.86.86,0,0,0-.43,1.14.72.72,0,0,0,.16.25L43,48.94a.88.88,0,0,0,1.05.15l15.09-8.48a.89.89,0,0,0,.3-.28l2.11-3.18.08-.13A2,2,0,0,0,60.49,34.38Zm-2.4,4.82-14.33,8-3-3.1.32-.15,3.17.84a.87.87,0,0,0,.76-.16l4.32-3.46A.86.86,0,0,0,49.47,40a.91.91,0,0,0-.24-.2L44.45,37l1.06-.7,7.42,1.65a.9.9,0,0,0,.62-.1L56,36.4a.87.87,0,0,1,.57-.11h.19l3.07-.3a.34.34,0,0,1,.12.12.31.31,0,0,1,.05.18Z"/></svg>