<svg id="Layer_1" data-name="Layer 1" xmlns="http://www.w3.org/2000/svg" viewBox="0 0 100 100"><defs><style>.cls-1{fill:#fcbd34;}.cls-2{fill:#15173f;}.cls-3{fill:#0ea0cf;}.cls-4{fill:#b6bdcc;}</style></defs><path class="cls-1" d="M32.09,28.91,32,30.49l-2.22,46.8L29.71,79a5,5,0,0,1-1-.54A4.27,4.27,0,0,1,27,74.72V33.63a4.43,4.43,0,0,1,3.4-4.58,5.69,5.69,0,0,1,1.37-.13Z"/><path class="cls-2" d="M69.81,28.79q-12.4-4-24.83-7.93a4.42,4.42,0,0,0-5.76,3c-.42,1.29-.84,2.57-1.24,3.86-.07.24-.15.48-.22.72a.56.56,0,0,1-.64.48c-1.68,0-3.35,0-5,0h-.36a5.69,5.69,0,0,0-1.37.13A4.43,4.43,0,0,0,27,33.63V74.72a4.27,4.27,0,0,0,1.73,3.69,5,5,0,0,0,1,.54c.34.15.69.28,1,.43H58.51s.05-.06.09-.07a4.42,4.42,0,0,0,3.61-4.81c0-2.1,0-4.2,0-6.31a3,3,0,0,1,.15-1L65,58.93q3.89-12.16,7.76-24.32A4.4,4.4,0,0,0,69.81,28.79Zm-12.38,49H31.54a3.1,3.1,0,0,1-1.75-.49,2.88,2.88,0,0,1-1.23-2.5q0-10.33,0-20.66t0-20.38a2.92,2.92,0,0,1,3.25-3.26H57.42A2.84,2.84,0,0,1,60.5,32.6a4,4,0,0,1,.13,1.08V74.61A2.86,2.86,0,0,1,57.43,77.78ZM71.25,34.2Q68,44.33,64.79,54.44q-1.16,3.62-2.3,7.21c-.05.15-.12.3-.18.45l-.1,0V56.89q0-11.65,0-23.31v-.24a4.33,4.33,0,0,0-3-4.17,6.09,6.09,0,0,0-1.81-.25H52.06c-4,0-8,0-12,0h-.66c0-.08-.08-.12-.07-.15.52-1.63,1-3.29,1.58-4.9a2.77,2.77,0,0,1,3.6-1.47l10.1,3.22L69.2,30.26A2.88,2.88,0,0,1,71.25,34.2Z"/><path class="cls-3" d="M34,45.7A10.61,10.61,0,1,1,44.63,56.3,10.65,10.65,0,0,1,34,45.7Zm9.79-2H40a9.75,9.75,0,0,0,0,4h3.77Zm5.36,0h-3.7v4h3.7Zm1.63,4c.76,0,1.56,0,2.35,0a.5.5,0,0,0,.32-.37q0-1.65,0-3.3a.5.5,0,0,0-.33-.35c-.79,0-1.59,0-2.34,0Zm-14.94-4a7.89,7.89,0,0,0,0,4h2.44v-4Zm4.62,5.65A10.43,10.43,0,0,0,43.78,54V49.35ZM43.77,42V37.39A10.36,10.36,0,0,0,40.47,42Zm9.08,7.28c-.78,0-1.45,0-2.11,0a.52.52,0,0,0-.6.44,11.8,11.8,0,0,1-2.23,3.89l-.42.5A8.77,8.77,0,0,0,52.85,49.32Zm-.07-7.25c-.71-2.1-3.58-4.69-5.29-4.81a12.59,12.59,0,0,1,2.73,4.54.5.5,0,0,0,.35.26C51.29,42.08,52,42.07,52.78,42.07ZM45.4,37.54V42h3.14A9.63,9.63,0,0,0,45.4,37.54Zm0,16.32a10.47,10.47,0,0,0,3.15-4.52H45.44Zm-4,.21a13.26,13.26,0,0,1-2.6-4.48.47.47,0,0,0-.36-.26c-.68,0-1.36,0-2.14,0A8.88,8.88,0,0,0,41.44,54.07Zm0-16.75a8.77,8.77,0,0,0-5.07,4.75c.77,0,1.44,0,2.11,0a.55.55,0,0,0,.39-.29A13.27,13.27,0,0,1,41.43,37.32Z"/><path class="cls-4" d="M44.56,68.83H35.15a4.34,4.34,0,0,1-.51,0,.72.72,0,0,1-.74-.73.75.75,0,0,1,.65-.82,2.69,2.69,0,0,1,.57,0H54.33c.62,0,1,.32,1,.82s-.35.77-1,.77Z"/><path class="cls-4" d="M44.56,63.23H35.15c-.21,0-.48.07-.62,0s-.58-.46-.59-.71.28-.56.51-.77.4-.07.61-.07h19a2.91,2.91,0,0,1,.51,0,.77.77,0,0,1,0,1.54,5.43,5.43,0,0,1-.57,0Z"/><path class="cls-4" d="M44.56,74.45h-5.1c-.71,0-1.05-.25-1.06-.77s.35-.83,1.07-.83H49.8c.62,0,1,.3,1,.78s-.37.81-1,.82H44.56Z"/></svg>